<svg fill="#FFFFFF" xmlns="http://www.w3.org/2000/svg" xmlns:xlink="http://www.w3.org/1999/xlink" contentStyleType="text/css" height="441px" preserveAspectRatio="none" style="width:569px;height:441px;background:#FFFFFF;" version="1.1" viewBox="0 0 569 441" width="569px" zoomAndPan="magnify"><title>Resposta padr&#227;o</title><defs/><g><rect x="0" y="0" width="569" height="441" fill="#FFFFFF" stroke="none"/><text fill="#000000" font-family="sans-serif" font-size="14" font-weight="bold" lengthAdjust="spacing" textLength="116.7876" x="223.3323" y="29.9659">Resposta padr&#227;o</text><rect fill="#ECEFF1" height="382.8018" style="stroke:#181818;stroke-width:0.5;" width="372.14" x="191.3122" y="46.0679"/><text fill="#000000" font-family="sans-serif" font-size="13" font-weight="bold" lengthAdjust="spacing" textLength="108.3811" x="323.1916" y="59.9649">Resposta Padr&#227;o</text><rect fill="#FFFFFF" height="138.118" style="stroke:#181818;stroke-width:1;" width="10" x="243.3141" y="185.6158"/><rect fill="#FFFFFF" height="30" style="stroke:#181818;stroke-width:1;" width="10" x="517.9573" y="262.0278"/><line style="stroke:#181818;stroke-width:0.5;stroke-dasharray:5.0,5.0;" x1="56" x2="56" y1="151.9098" y2="341.7338"/><line style="stroke:#181818;stroke-width:0.5;stroke-dasharray:5.0,5.0;" x1="248.3122" x2="248.3122" y1="151.9098" y2="341.7338"/><line style="stroke:#181818;stroke-width:0.5;stroke-dasharray:5.0,5.0;" x1="522.4624" x2="522.4624" y1="151.9098" y2="341.7338"/><rect fill="#9C27B0" height="71.2038" rx="2.5" ry="2.5" style="stroke:#7B1FA2;stroke-width:0.5;" width="70.9938" x="21" y="79.706"/><text fill="#FFFFFF" font-family="sans-serif" font-size="14" font-style="italic" lengthAdjust="spacing" textLength="40.0539" x="36.47" y="101.672">&#171;mcp&#187;</text><text fill="#FFFFFF" font-family="sans-serif" font-size="14" lengthAdjust="spacing" textLength="30.0159" x="41.4889" y="120.7399">MCP</text><text fill="#FFFFFF" font-family="sans-serif" font-size="14" lengthAdjust="spacing" textLength="56.9938" x="28" y="139.8078">Gateway</text><rect fill="#9C27B0" height="71.2038" rx="2.5" ry="2.5" style="stroke:#7B1FA2;stroke-width:0.5;" width="70.9938" x="21" y="340.7338"/><text fill="#FFFFFF" font-family="sans-serif" font-size="14" font-style="italic" lengthAdjust="spacing" textLength="40.0539" x="36.47" y="362.6998">&#171;mcp&#187;</text><text fill="#FFFFFF" font-family="sans-serif" font-size="14" lengthAdjust="spacing" textLength="30.0159" x="41.4889" y="381.7677">MCP</text><text fill="#FFFFFF" font-family="sans-serif" font-size="14" lengthAdjust="spacing" textLength="56.9938" x="28" y="400.8356">Gateway</text><rect fill="#FFF9C4" height="52.1358" rx="2.5" ry="2.5" style="stroke:#181818;stroke-width:0.5;" width="74.0038" x="211.3122" y="98.7739"/><text fill="#000000" font-family="sans-serif" font-size="14" lengthAdjust="spacing" textLength="60.0038" x="218.3122" y="120.7399">Resposta</text><text fill="#000000" font-family="sans-serif" font-size="14" lengthAdjust="spacing" textLength="47.0398" x="224.7941" y="139.8078">Padr&#227;o</text><rect fill="#FFF9C4" height="52.1358" rx="2.5" ry="2.5" style="stroke:#181818;stroke-width:0.5;" width="74.0038" x="211.3122" y="340.7338"/><text fill="#000000" font-family="sans-serif" font-size="14" lengthAdjust="spacing" textLength="60.0038" x="218.3122" y="362.6998">Resposta</text><text fill="#000000" font-family="sans-serif" font-size="14" lengthAdjust="spacing" textLength="47.0398" x="224.7941" y="381.7677">Padr&#227;o</text><text fill="#000000" font-family="sans-serif" font-size="14" lengthAdjust="spacing" textLength="19.3199" x="510.2973" y="128.7399">BD</text><text fill="#000000" font-family="sans-serif" font-size="14" lengthAdjust="spacing" textLength="66.9897" x="486.4624" y="147.8078">Relacional</text><path d="M504.9573,77.7739 C504.9573,67.7739 522.9573,67.7739 522.9573,67.7739 C522.9573,67.7739 540.9573,67.7739 540.9573,77.7739 L540.9573,103.7739 C540.9573,113.7739 522.9573,113.7739 522.9573,113.7739 C522.9573,113.7739 504.9573,113.7739 504.9573,103.7739 L504.9573,77.7739 " fill="#E2E2F0" style="stroke:#E65100;stroke-width:1.5;"/><path d="M504.9573,77.7739 C504.9573,87.7739 522.9573,87.7739 522.9573,87.7739 C522.9573,87.7739 540.9573,87.7739 540.9573,77.7739 " fill="none" style="stroke:#E65100;stroke-width:1.5;"/><text fill="#000000" font-family="sans-serif" font-size="14" lengthAdjust="spacing" textLength="19.3199" x="510.2973" y="355.6998">BD</text><text fill="#000000" font-family="sans-serif" font-size="14" lengthAdjust="spacing" textLength="66.9897" x="486.4624" y="374.7677">Relacional</text><path d="M504.9573,388.8697 C504.9573,378.8697 522.9573,378.8697 522.9573,378.8697 C522.9573,378.8697 540.9573,378.8697 540.9573,388.8697 L540.9573,414.8697 C540.9573,424.8697 522.9573,424.8697 522.9573,424.8697 C522.9573,424.8697 504.9573,424.8697 504.9573,414.8697 L504.9573,388.8697 " fill="#E2E2F0" style="stroke:#E65100;stroke-width:1.5;"/><path d="M504.9573,388.8697 C504.9573,398.8697 522.9573,398.8697 522.9573,398.8697 C522.9573,398.8697 540.9573,398.8697 540.9573,388.8697 " fill="none" style="stroke:#E65100;stroke-width:1.5;"/><rect fill="#FFFFFF" height="138.118" style="stroke:#181818;stroke-width:1;" width="10" x="243.3141" y="185.6158"/><rect fill="#FFFFFF" height="30" style="stroke:#181818;stroke-width:1;" width="10" x="517.9573" y="262.0278"/><polygon fill="#000000" points="231.3141,181.6158,241.3141,185.6158,231.3141,189.6158,235.3141,185.6158" style="stroke:#000000;stroke-width:1;"/><line style="stroke:#000000;stroke-width:2;" x1="56.4969" x2="237.3141" y1="185.6158" y2="185.6158"/><text fill="#000000" font-family="sans-serif" font-size="13" lengthAdjust="spacing" textLength="167.8172" x="65.9969" y="179.8068">1. obterResposta(pergunta)</text><line style="stroke:#000000;stroke-width:2;" x1="253.3141" x2="295.3141" y1="217.3218" y2="217.3218"/><line style="stroke:#000000;stroke-width:2;" x1="295.3141" x2="295.3141" y1="217.3218" y2="230.3218"/><line style="stroke:#000000;stroke-width:2;" x1="254.3141" x2="295.3141" y1="230.3218" y2="230.3218"/><polygon fill="#000000" points="264.3141,226.3218,254.3141,230.3218,264.3141,234.3218,260.3141,230.3218" style="stroke:#000000;stroke-width:1;"/><text fill="#000000" font-family="sans-serif" font-size="13" lengthAdjust="spacing" textLength="240.6432" x="260.3141" y="211.5128">2. selecionarRespostaPadrao(pergunta)</text><polygon fill="#000000" points="505.9573,258.0278,515.9573,262.0278,505.9573,266.0278,509.9573,262.0278" style="stroke:#000000;stroke-width:1;"/><line style="stroke:#000000;stroke-width:2;" x1="253.3141" x2="511.9573" y1="262.0278" y2="262.0278"/><text fill="#000000" font-family="sans-serif" font-size="13" lengthAdjust="spacing" textLength="133.6271" x="318.8221" y="256.2188">3. registrarInteracao()</text><polygon fill="#000000" points="67.4969,319.7338,57.4969,323.7338,67.4969,327.7338,63.4969,323.7338" style="stroke:#000000;stroke-width:1;"/><line style="stroke:#000000;stroke-width:2;stroke-dasharray:2.0,2.0;" x1="61.4969" x2="247.3141" y1="323.7338" y2="323.7338"/><text fill="#000000" font-family="sans-serif" font-size="13" lengthAdjust="spacing" textLength="67.3011" x="118.7549" y="317.9248">4. resposta</text><!--SRC=[XPB1Jjmm48RlVefHUcaFNP4j1O7GIfj0AWuhhMYFUvcrXs2jiLFRwL9LF4qVfIzMsya60qBuEFxc_t-Fnqkl26x8TSPvX0w5_VVNCEPsKdTeyHwso7UjDRqMjL76meScdOpuJZzxqfmgyr2z2mkwnLxvncW_8aVfP8YxGs7sKhTmYyfHThD6woMN7Mg_HY4YKfxadMEI5Jc7BIsLR3LmqfviHjduMkqEL4NAx9VMcZrus-TsgVXModJvuqxodGuwCCzdrZtblBYuvzrY0NyOmAlfdDNpq-eetXWho8xLqwfiblDGpOOqpl4ndoHwtAAZGJeNk3hvMeQiZunbGQ1OrUkD_eQUzlYx07GG2Z3cOsnh7g2O5c4zB48HnEghfYc3nJEj0xZH4na4c-jLYdfM7uU6AM1HNMxq3IdaqcXK2QqkGu6H5X2C6OjHFY-Im3cKCp3Ry6S7auyTsRRN7Zynv5x-2a-896CHdxhci_3_YfB7r1hJeSa43Zt9FtHzcOLzQANp5krrN1JaWS-CXg22NXG6dI0Kav_3yMnOgs2Pip7bVm00]--></g></svg>