<svg fill="#FFFFFF" xmlns="http://www.w3.org/2000/svg" xmlns:xlink="http://www.w3.org/1999/xlink" contentStyleType="text/css" height="511px" preserveAspectRatio="none" style="width:737px;height:511px;background:#FFFFFF;" version="1.1" viewBox="0 0 737 511" width="737px" zoomAndPan="magnify"><title>Fluxo completo</title><defs/><g><rect x="0" y="0" width="737" height="511" fill="#FFFFFF" stroke="none"/><text fill="#000000" font-family="sans-serif" font-size="14" font-weight="bold" lengthAdjust="spacing" textLength="107.3096" x="324.0612" y="29.9659">Fluxo completo</text><rect fill="#FFFFFF" height="61.706" style="stroke:#181818;stroke-width:1;" width="10" x="169.754" y="157.8419"/><rect fill="#FFFFFF" height="31.706" style="stroke:#181818;stroke-width:1;" width="10" x="169.754" y="378.0779"/><rect fill="#FFFFFF" height="220.2361" style="stroke:#181818;stroke-width:1;" width="10" x="350.6072" y="189.5479"/><rect fill="#FFFFFF" height="31.706" style="stroke:#181818;stroke-width:1;" width="10" x="545.8123" y="251.2539"/><rect fill="#FFFFFF" height="31.706" style="stroke:#181818;stroke-width:1;" width="10" x="684.908" y="314.6659"/><line style="stroke:#181818;stroke-width:0.5;stroke-dasharray:5.0,5.0;" x1="33" x2="33" y1="124.1358" y2="427.784"/><line style="stroke:#181818;stroke-width:0.5;stroke-dasharray:5.0,5.0;" x1="174.5631" x2="174.5631" y1="124.1358" y2="427.784"/><line style="stroke:#181818;stroke-width:0.5;stroke-dasharray:5.0,5.0;" x1="355.1103" x2="355.1103" y1="124.1358" y2="427.784"/><line style="stroke:#181818;stroke-width:0.5;stroke-dasharray:5.0,5.0;" x1="550.2405" x2="550.2405" y1="124.1358" y2="427.784"/><line style="stroke:#181818;stroke-width:0.5;stroke-dasharray:5.0,5.0;" x1="689.3842" x2="689.3842" y1="124.1358" y2="427.784"/><text fill="#000000" font-family="sans-serif" font-size="14" lengthAdjust="spacing" textLength="51.3098" x="5" y="120.0339">Usuario</text><ellipse cx="33.6549" cy="53.5679" fill="#08415F" rx="8" ry="8" style="stroke:#08415F;stroke-width:0.5;"/><path d="M33.6549,61.5679 L33.6549,88.5679 M20.6549,69.5679 L46.6549,69.5679 M33.6549,88.5679 L20.6549,103.5679 M33.6549,88.5679 L46.6549,103.5679 " fill="none" style="stroke:#08415F;stroke-width:0.5;"/><text fill="#000000" font-family="sans-serif" font-size="14" lengthAdjust="spacing" textLength="51.3098" x="5" y="441.7499">Usuario</text><ellipse cx="33.6549" cy="454.3519" fill="#08415F" rx="8" ry="8" style="stroke:#08415F;stroke-width:0.5;"/><path d="M33.6549,462.3519 L33.6549,489.3519 M20.6549,470.3519 L46.6549,470.3519 M33.6549,489.3519 L20.6549,504.3519 M33.6549,489.3519 L46.6549,504.3519 " fill="none" style="stroke:#08415F;stroke-width:0.5;"/><rect fill="#FFF9C4" height="33.0679" rx="2.5" ry="2.5" style="stroke:#181818;stroke-width:0.5;" width="74.3818" x="137.5631" y="90.0679"/><text fill="#000000" font-family="sans-serif" font-size="14" lengthAdjust="spacing" textLength="60.3818" x="144.5631" y="112.0339">Frontend</text><rect fill="#FFF9C4" height="33.0679" rx="2.5" ry="2.5" style="stroke:#181818;stroke-width:0.5;" width="74.3818" x="137.5631" y="426.784"/><text fill="#000000" font-family="sans-serif" font-size="14" lengthAdjust="spacing" textLength="60.3818" x="144.5631" y="448.7499">Frontend</text><rect fill="#9C27B0" height="71.2038" rx="2.5" ry="2.5" style="stroke:#7B1FA2;stroke-width:0.5;" width="70.9938" x="320.1103" y="51.9321"/><text fill="#FFFFFF" font-family="sans-serif" font-size="14" font-style="italic" lengthAdjust="spacing" textLength="40.0539" x="335.5802" y="73.898">&#171;mcp&#187;</text><text fill="#FFFFFF" font-family="sans-serif" font-size="14" lengthAdjust="spacing" textLength="30.0159" x="340.5992" y="92.9659">MCP</text><text fill="#FFFFFF" font-family="sans-serif" font-size="14" lengthAdjust="spacing" textLength="56.9938" x="327.1103" y="112.0339">Gateway</text><rect fill="#9C27B0" height="71.2038" rx="2.5" ry="2.5" style="stroke:#7B1FA2;stroke-width:0.5;" width="70.9938" x="320.1103" y="426.784"/><text fill="#FFFFFF" font-family="sans-serif" font-size="14" font-style="italic" lengthAdjust="spacing" textLength="40.0539" x="335.5802" y="448.7499">&#171;mcp&#187;</text><text fill="#FFFFFF" font-family="sans-serif" font-size="14" lengthAdjust="spacing" textLength="30.0159" x="340.5992" y="467.8178">MCP</text><text fill="#FFFFFF" font-family="sans-serif" font-size="14" lengthAdjust="spacing" textLength="56.9938" x="327.1103" y="486.8857">Gateway</text><rect fill="#212121" height="52.1358" rx="2.5" ry="2.5" style="stroke:#000000;stroke-width:0.5;" width="95.1437" x="503.2405" y="71"/><text fill="#FFFFFF" font-family="sans-serif" font-size="14" font-style="italic" lengthAdjust="spacing" textLength="69.0478" x="516.2884" y="92.9659">&#171;blackbox&#187;</text><text fill="#FFFFFF" font-family="sans-serif" font-size="14" lengthAdjust="spacing" textLength="81.1437" x="510.2405" y="112.0339">Roteamento</text><rect fill="#212121" height="52.1358" rx="2.5" ry="2.5" style="stroke:#000000;stroke-width:0.5;" width="95.1437" x="503.2405" y="426.784"/><text fill="#FFFFFF" font-family="sans-serif" font-size="14" font-style="italic" lengthAdjust="spacing" textLength="69.0478" x="516.2884" y="448.7499">&#171;blackbox&#187;</text><text fill="#FFFFFF" font-family="sans-serif" font-size="14" lengthAdjust="spacing" textLength="81.1437" x="510.2405" y="467.8178">Roteamento</text><rect fill="#212121" height="52.1358" rx="2.5" ry="2.5" style="stroke:#000000;stroke-width:0.5;" width="83.0478" x="648.3842" y="71"/><text fill="#FFFFFF" font-family="sans-serif" font-size="14" font-style="italic" lengthAdjust="spacing" textLength="69.0478" x="655.3842" y="92.9659">&#171;blackbox&#187;</text><text fill="#FFFFFF" font-family="sans-serif" font-size="14" lengthAdjust="spacing" textLength="65.0437" x="657.3862" y="112.0339">FIM / RAG</text><rect fill="#212121" height="52.1358" rx="2.5" ry="2.5" style="stroke:#000000;stroke-width:0.5;" width="83.0478" x="648.3842" y="426.784"/><text fill="#FFFFFF" font-family="sans-serif" font-size="14" font-style="italic" lengthAdjust="spacing" textLength="69.0478" x="655.3842" y="448.7499">&#171;blackbox&#187;</text><text fill="#FFFFFF" font-family="sans-serif" font-size="14" lengthAdjust="spacing" textLength="65.0437" x="657.3862" y="467.8178">FIM / RAG</text><rect fill="#FFFFFF" height="61.706" style="stroke:#181818;stroke-width:1;" width="10" x="169.754" y="157.8419"/><rect fill="#FFFFFF" height="31.706" style="stroke:#181818;stroke-width:1;" width="10" x="169.754" y="378.0779"/><rect fill="#FFFFFF" height="220.2361" style="stroke:#181818;stroke-width:1;" width="10" x="350.6072" y="189.5479"/><rect fill="#FFFFFF" height="31.706" style="stroke:#181818;stroke-width:1;" width="10" x="545.8123" y="251.2539"/><rect fill="#FFFFFF" height="31.706" style="stroke:#181818;stroke-width:1;" width="10" x="684.908" y="314.6659"/><polygon fill="#181818" points="157.754,153.8419,167.754,157.8419,157.754,161.8419,161.754,157.8419" style="stroke:#181818;stroke-width:1;"/><line style="stroke:#181818;stroke-width:1;" x1="33.6549" x2="163.754" y1="157.8419" y2="157.8419"/><text fill="#000000" font-family="sans-serif" font-size="13" lengthAdjust="spacing" textLength="116.7011" x="43.3539" y="152.0328">1. enviarPergunta()</text><polygon fill="#181818" points="338.6072,185.5479,348.6072,189.5479,338.6072,193.5479,342.6072,189.5479" style="stroke:#181818;stroke-width:1;"/><line style="stroke:#181818;stroke-width:1;" x1="179.754" x2="344.6072" y1="189.5479" y2="189.5479"/><text fill="#000000" font-family="sans-serif" font-size="13" lengthAdjust="spacing" textLength="151.8531" x="189.254" y="183.7389">2. encaminharPergunta()</text><polygon fill="#181818" points="533.8123,247.2539,543.8123,251.2539,533.8123,255.2539,537.8123,251.2539" style="stroke:#181818;stroke-width:1;"/><line style="stroke:#181818;stroke-width:1;" x1="360.6072" x2="539.8123" y1="251.2539" y2="251.2539"/><text fill="#000000" font-family="sans-serif" font-size="13" lengthAdjust="spacing" textLength="166.2052" x="370.1072" y="245.4449">3. classificarRota(pergunta)</text><polygon fill="#181818" points="371.6072,278.9599,361.6072,282.9599,371.6072,286.9599,367.6072,282.9599" style="stroke:#181818;stroke-width:1;"/><line style="stroke:#181818;stroke-width:1;stroke-dasharray:2.0,2.0;" x1="365.6072" x2="549.8123" y1="282.9599" y2="282.9599"/><text fill="#000000" font-family="sans-serif" font-size="13" lengthAdjust="spacing" textLength="130.1951" x="390.6122" y="277.1509">4. decisao: FIM | RAG</text><polygon fill="#181818" points="672.908,310.6659,682.908,314.6659,672.908,318.6659,676.908,314.6659" style="stroke:#181818;stroke-width:1;"/><line style="stroke:#181818;stroke-width:1;" x1="360.6072" x2="678.908" y1="314.6659" y2="314.6659"/><text fill="#000000" font-family="sans-serif" font-size="13" lengthAdjust="spacing" textLength="128.3231" x="458.5961" y="308.8569">5. processar(decisao)</text><polygon fill="#181818" points="371.6072,342.3719,361.6072,346.3719,371.6072,350.3719,367.6072,346.3719" style="stroke:#181818;stroke-width:1;"/><line style="stroke:#181818;stroke-width:1;stroke-dasharray:2.0,2.0;" x1="365.6072" x2="688.908" y1="346.3719" y2="346.3719"/><text fill="#000000" font-family="sans-serif" font-size="13" lengthAdjust="spacing" textLength="67.3011" x="491.6071" y="340.5629">6. resposta</text><polygon fill="#181818" points="190.754,374.0779,180.754,378.0779,190.754,382.0779,186.754,378.0779" style="stroke:#181818;stroke-width:1;"/><line style="stroke:#181818;stroke-width:1;stroke-dasharray:2.0,2.0;" x1="184.754" x2="349.6072" y1="378.0779" y2="378.0779"/><text fill="#000000" font-family="sans-serif" font-size="13" lengthAdjust="spacing" textLength="67.3011" x="231.5301" y="372.2689">7. resposta</text><polygon fill="#181818" points="44.6549,405.784,34.6549,409.784,44.6549,413.784,40.6549,409.784" style="stroke:#181818;stroke-width:1;"/><line style="stroke:#181818;stroke-width:1;stroke-dasharray:2.0,2.0;" x1="38.6549" x2="173.754" y1="409.784" y2="409.784"/><text fill="#000000" font-family="sans-serif" font-size="13" lengthAdjust="spacing" textLength="112.0991" x="48.1549" y="403.975">8. exibirResposta()</text><!--SRC=[XLFBZjem5DtxAwwc6xeO2YbJc6Y4H90OTO6467NNpSMvPAn9xDHsWAhjlzSE2J6FQPrLxFEwnx8LDYTOvDL10LT5cPDLZ9at8KlKMC06-LkcLINJkSgLXW-BUWM85_fHaUIKg4FoNt1AMwnokr3IDf11lGA8USLKxONCO8kveU1aXTeABagKTeLfwY5Ho7G9slr9ADW4N98ncD4i5va4JjAI3b2QJAcaQL49vMe_qrhjmUgAmagGMnVy5mEucdSm6GqVjlv4wPJqvUxrs7y2tR8Rx-cfuELqUjlaSHwDay6boJWPBcRHkKbJ_xiccznfRzJXFQTewB-hSOxHRpknOplVJ8LQA1ROmTr2EmB9z0xGGFjJSn_detFeShxwBf_HqXv_rd2t0KqhvyYrieI5kqrLuxfV2EUx2F9r2PzWFNkkAI-aTu9Vu5ap0TnFkwWn3Fj0SYTGhqXdbRJO- -Wd5ZiNzOHZ9u8Z- -0nH9x7iH3ozJRNmLXArrBCyvrCC5SCd_l0SpH6R0L7xOwmLpQQWMH7OG7x_fHfr7VFaGk3AWRVo6_VI1WY46XZj5t5yD27KYlkNulkDJg1UGDaBQ6p_T8_lZLZCJHh2KUdyzR70ULVRJjMUsqnJ5pb1x4HUjrGNTst6Wxs_2Ny1G00]--></g></svg>