<svg fill="#FFFFFF" xmlns="http://www.w3.org/2000/svg" xmlns:xlink="http://www.w3.org/1999/xlink" contentStyleType="text/css" height="648px" preserveAspectRatio="none" style="width:695px;height:648px;background:#FFFFFF;" version="1.1" viewBox="0 0 695 648" width="695px" zoomAndPan="magnify"><title>RAG</title><defs/><g><rect x="0" y="0" width="695" height="648" fill="#FFFFFF" stroke="none"/><text fill="#000000" font-family="sans-serif" font-size="14" font-weight="bold" lengthAdjust="spacing" textLength="29.0359" x="330.3844" y="29.9659">RAG</text><rect fill="#ECEFF1" height="589.7439" style="stroke:#181818;stroke-width:0.5;" width="482.7906" x="207.0142" y="46.0679"/><text fill="#000000" font-family="sans-serif" font-size="13" font-weight="bold" lengthAdjust="spacing" textLength="112.3721" x="392.2235" y="59.9649">RAG Documentos</text><rect fill="#FFFFFF" height="345.0602" style="stroke:#181818;stroke-width:1;" width="10" x="268.8741" y="185.6158"/><rect fill="#FFFFFF" height="31.706" style="stroke:#181818;stroke-width:1;" width="10" x="490.1052" y="279.7338"/><rect fill="#FFFFFF" height="31.706" style="stroke:#181818;stroke-width:1;" width="10" x="563.1301" y="405.5579"/><rect fill="#FFFFFF" height="30" style="stroke:#181818;stroke-width:1;" width="10" x="644.3099" y="468.9699"/><line style="stroke:#181818;stroke-width:0.5;stroke-dasharray:5.0,5.0;" x1="54" x2="54" y1="151.9098" y2="548.6759"/><line style="stroke:#181818;stroke-width:0.5;stroke-dasharray:5.0,5.0;" x1="273.0142" x2="273.0142" y1="151.9098" y2="548.6759"/><line style="stroke:#181818;stroke-width:0.5;stroke-dasharray:5.0,5.0;" x1="494.7653" x2="494.7653" y1="151.9098" y2="548.6759"/><line style="stroke:#181818;stroke-width:0.5;stroke-dasharray:5.0,5.0;" x1="567.4451" x2="567.4451" y1="151.9098" y2="548.6759"/><line style="stroke:#181818;stroke-width:0.5;stroke-dasharray:5.0,5.0;" x1="648.815" x2="648.815" y1="151.9098" y2="548.6759"/><rect fill="#9C27B0" height="71.2038" rx="2.5" ry="2.5" style="stroke:#7B1FA2;stroke-width:0.5;" width="70.9938" x="19" y="79.706"/><text fill="#FFFFFF" font-family="sans-serif" font-size="14" font-style="italic" lengthAdjust="spacing" textLength="40.0539" x="34.47" y="101.672">&#171;mcp&#187;</text><text fill="#FFFFFF" font-family="sans-serif" font-size="14" lengthAdjust="spacing" textLength="30.0159" x="39.4889" y="120.7399">MCP</text><text fill="#FFFFFF" font-family="sans-serif" font-size="14" lengthAdjust="spacing" textLength="56.9938" x="26" y="139.8078">Gateway</text><rect fill="#9C27B0" height="71.2038" rx="2.5" ry="2.5" style="stroke:#7B1FA2;stroke-width:0.5;" width="70.9938" x="19" y="547.6759"/><text fill="#FFFFFF" font-family="sans-serif" font-size="14" font-style="italic" lengthAdjust="spacing" textLength="40.0539" x="34.47" y="569.6419">&#171;mcp&#187;</text><text fill="#FFFFFF" font-family="sans-serif" font-size="14" lengthAdjust="spacing" textLength="30.0159" x="39.4889" y="588.7098">MCP</text><text fill="#FFFFFF" font-family="sans-serif" font-size="14" lengthAdjust="spacing" textLength="56.9938" x="26" y="607.7777">Gateway</text><rect fill="#C8E6C9" height="52.1358" rx="2.5" ry="2.5" style="stroke:#66BB6A;stroke-width:0.5;" width="97.7197" x="225.0142" y="98.7739"/><text fill="#000000" font-family="sans-serif" font-size="14" font-style="italic" lengthAdjust="spacing" textLength="83.7197" x="232.0142" y="120.7399">&#171;embedding&#187;</text><text fill="#000000" font-family="sans-serif" font-size="14" lengthAdjust="spacing" textLength="75.4737" x="236.1372" y="139.8078">Embedding</text><rect fill="#C8E6C9" height="52.1358" rx="2.5" ry="2.5" style="stroke:#66BB6A;stroke-width:0.5;" width="97.7197" x="225.0142" y="547.6759"/><text fill="#000000" font-family="sans-serif" font-size="14" font-style="italic" lengthAdjust="spacing" textLength="83.7197" x="232.0142" y="569.6419">&#171;embedding&#187;</text><text fill="#000000" font-family="sans-serif" font-size="14" lengthAdjust="spacing" textLength="75.4737" x="236.1372" y="588.7098">Embedding</text><text fill="#000000" font-family="sans-serif" font-size="14" lengthAdjust="spacing" textLength="19.3199" x="482.4453" y="128.7399">BD</text><text fill="#000000" font-family="sans-serif" font-size="14" lengthAdjust="spacing" textLength="50.6798" x="466.7653" y="147.8078">Vetorial</text><path d="M477.1052,77.7739 C477.1052,67.7739 495.1052,67.7739 495.1052,67.7739 C495.1052,67.7739 513.1052,67.7739 513.1052,77.7739 L513.1052,103.7739 C513.1052,113.7739 495.1052,113.7739 495.1052,113.7739 C495.1052,113.7739 477.1052,113.7739 477.1052,103.7739 L477.1052,77.7739 " fill="#E2E2F0" style="stroke:#E65100;stroke-width:1.5;"/><path d="M477.1052,77.7739 C477.1052,87.7739 495.1052,87.7739 495.1052,87.7739 C495.1052,87.7739 513.1052,87.7739 513.1052,77.7739 " fill="none" style="stroke:#E65100;stroke-width:1.5;"/><text fill="#000000" font-family="sans-serif" font-size="14" lengthAdjust="spacing" textLength="19.3199" x="482.4453" y="562.6419">BD</text><text fill="#000000" font-family="sans-serif" font-size="14" lengthAdjust="spacing" textLength="50.6798" x="466.7653" y="581.7098">Vetorial</text><path d="M477.1052,595.8118 C477.1052,585.8118 495.1052,585.8118 495.1052,585.8118 C495.1052,585.8118 513.1052,585.8118 513.1052,595.8118 L513.1052,621.8118 C513.1052,631.8118 495.1052,631.8118 495.1052,631.8118 C495.1052,631.8118 477.1052,631.8118 477.1052,621.8118 L477.1052,595.8118 " fill="#E2E2F0" style="stroke:#E65100;stroke-width:1.5;"/><path d="M477.1052,595.8118 C477.1052,605.8118 495.1052,605.8118 495.1052,605.8118 C495.1052,605.8118 513.1052,605.8118 513.1052,595.8118 " fill="none" style="stroke:#E65100;stroke-width:1.5;"/><rect fill="#8D6E63" height="33.0679" rx="2.5" ry="2.5" style="stroke:#181818;stroke-width:0.5;" width="41.3699" x="547.4451" y="117.8419"/><text fill="#000000" font-family="sans-serif" font-size="14" lengthAdjust="spacing" textLength="27.3699" x="554.4451" y="139.8078">LLM</text><rect fill="#8D6E63" height="33.0679" rx="2.5" ry="2.5" style="stroke:#181818;stroke-width:0.5;" width="41.3699" x="547.4451" y="547.6759"/><text fill="#000000" font-family="sans-serif" font-size="14" lengthAdjust="spacing" textLength="27.3699" x="554.4451" y="569.6419">LLM</text><text fill="#000000" font-family="sans-serif" font-size="14" lengthAdjust="spacing" textLength="19.3199" x="636.6499" y="128.7399">BD</text><text fill="#000000" font-family="sans-serif" font-size="14" lengthAdjust="spacing" textLength="66.9897" x="612.815" y="147.8078">Relacional</text><path d="M631.3099,77.7739 C631.3099,67.7739 649.3099,67.7739 649.3099,67.7739 C649.3099,67.7739 667.3099,67.7739 667.3099,77.7739 L667.3099,103.7739 C667.3099,113.7739 649.3099,113.7739 649.3099,113.7739 C649.3099,113.7739 631.3099,113.7739 631.3099,103.7739 L631.3099,77.7739 " fill="#E2E2F0" style="stroke:#E65100;stroke-width:1.5;"/><path d="M631.3099,77.7739 C631.3099,87.7739 649.3099,87.7739 649.3099,87.7739 C649.3099,87.7739 667.3099,87.7739 667.3099,77.7739 " fill="none" style="stroke:#E65100;stroke-width:1.5;"/><text fill="#000000" font-family="sans-serif" font-size="14" lengthAdjust="spacing" textLength="19.3199" x="636.6499" y="562.6419">BD</text><text fill="#000000" font-family="sans-serif" font-size="14" lengthAdjust="spacing" textLength="66.9897" x="612.815" y="581.7098">Relacional</text><path d="M631.3099,595.8118 C631.3099,585.8118 649.3099,585.8118 649.3099,585.8118 C649.3099,585.8118 667.3099,585.8118 667.3099,595.8118 L667.3099,621.8118 C667.3099,631.8118 649.3099,631.8118 649.3099,631.8118 C649.3099,631.8118 631.3099,631.8118 631.3099,621.8118 L631.3099,595.8118 " fill="#E2E2F0" style="stroke:#E65100;stroke-width:1.5;"/><path d="M631.3099,595.8118 C631.3099,605.8118 649.3099,605.8118 649.3099,605.8118 C649.3099,605.8118 667.3099,605.8118 667.3099,595.8118 " fill="none" style="stroke:#E65100;stroke-width:1.5;"/><rect fill="#FFFFFF" height="345.0602" style="stroke:#181818;stroke-width:1;" width="10" x="268.8741" y="185.6158"/><rect fill="#FFFFFF" height="31.706" style="stroke:#181818;stroke-width:1;" width="10" x="490.1052" y="279.7338"/><rect fill="#FFFFFF" height="31.706" style="stroke:#181818;stroke-width:1;" width="10" x="563.1301" y="405.5579"/><rect fill="#FFFFFF" height="30" style="stroke:#181818;stroke-width:1;" width="10" x="644.3099" y="468.9699"/><polygon fill="#000000" points="256.8741,181.6158,266.8741,185.6158,256.8741,189.6158,260.8741,185.6158" style="stroke:#000000;stroke-width:1;"/><line style="stroke:#000000;stroke-width:2;" x1="54.4969" x2="262.8741" y1="185.6158" y2="185.6158"/><text fill="#000000" font-family="sans-serif" font-size="13" lengthAdjust="spacing" textLength="10.92" x="63.9969" y="179.8068">1.</text><text fill="#000000" font-family="sans-serif" font-size="13" lengthAdjust="spacing" textLength="3.38" x="74.9169" y="179.8068">&#160;</text><text fill="#000000" font-family="sans-serif" font-size="13" lengthAdjust="spacing" textLength="181.0772" x="78.2969" y="179.8068">processarPergunta(pergunta)</text><line style="stroke:#000000;stroke-width:2;" x1="278.8741" x2="320.8741" y1="217.3218" y2="217.3218"/><line style="stroke:#000000;stroke-width:2;" x1="320.8741" x2="320.8741" y1="217.3218" y2="230.3218"/><line style="stroke:#000000;stroke-width:2;" x1="279.8741" x2="320.8741" y1="230.3218" y2="230.3218"/><polygon fill="#000000" points="289.8741,226.3218,279.8741,230.3218,289.8741,234.3218,285.8741,230.3218" style="stroke:#000000;stroke-width:1;"/><text fill="#000000" font-family="sans-serif" font-size="13" lengthAdjust="spacing" textLength="10.92" x="285.8741" y="211.5128">2.</text><text fill="#000000" font-family="sans-serif" font-size="13" lengthAdjust="spacing" textLength="3.38" x="296.7941" y="211.5128">&#160;</text><text fill="#000000" font-family="sans-serif" font-size="13" lengthAdjust="spacing" textLength="130.9621" x="300.1741" y="211.5128">gerarVetor(pergunta)</text><polygon fill="#000000" points="478.1052,275.7338,488.1052,279.7338,478.1052,283.7338,482.1052,279.7338" style="stroke:#000000;stroke-width:1;"/><line style="stroke:#000000;stroke-width:2;" x1="278.8741" x2="484.1052" y1="279.7338" y2="279.7338"/><text fill="#000000" font-family="sans-serif" font-size="13" lengthAdjust="spacing" textLength="10.92" x="288.3741" y="256.2188">3.</text><text fill="#000000" font-family="sans-serif" font-size="13" lengthAdjust="spacing" textLength="3.38" x="299.2941" y="256.2188">&#160;</text><text fill="#000000" font-family="sans-serif" font-size="13" lengthAdjust="spacing" textLength="177.9312" x="302.6741" y="256.2188">recuperarDocumentos(vetor)</text><text fill="#000000" font-family="sans-serif" font-size="13" lengthAdjust="spacing" textLength="50.843" x="292.2286" y="273.9248">(normas</text><text fill="#000000" font-family="sans-serif" font-size="13" lengthAdjust="spacing" textLength="3.38" x="343.0716" y="273.9248">&#160;</text><text fill="#000000" font-family="sans-serif" font-size="13" lengthAdjust="spacing" textLength="91.6501" x="346.4516" y="273.9248">p&#243;s-gradua&#231;&#227;o</text><text fill="#000000" font-family="sans-serif" font-size="13" lengthAdjust="spacing" textLength="3.38" x="438.1017" y="273.9248">&#160;</text><text fill="#000000" font-family="sans-serif" font-size="13" lengthAdjust="spacing" textLength="35.269" x="441.4817" y="273.9248">UFLA)</text><polygon fill="#000000" points="289.8741,307.4398,279.8741,311.4398,289.8741,315.4398,285.8741,311.4398" style="stroke:#000000;stroke-width:1;"/><line style="stroke:#000000;stroke-width:2;stroke-dasharray:2.0,2.0;" x1="283.8741" x2="494.1052" y1="311.4398" y2="311.4398"/><text fill="#000000" font-family="sans-serif" font-size="13" lengthAdjust="spacing" textLength="10.92" x="352.6826" y="305.6308">4.</text><text fill="#000000" font-family="sans-serif" font-size="13" lengthAdjust="spacing" textLength="3.38" x="363.6026" y="305.6308">&#160;</text><text fill="#000000" font-family="sans-serif" font-size="13" lengthAdjust="spacing" textLength="54.3141" x="366.9826" y="305.6308">trechos[]</text><line style="stroke:#000000;stroke-width:2;" x1="278.8741" x2="320.8741" y1="360.8519" y2="360.8519"/><line style="stroke:#000000;stroke-width:2;" x1="320.8741" x2="320.8741" y1="360.8519" y2="373.8519"/><line style="stroke:#000000;stroke-width:2;" x1="279.8741" x2="320.8741" y1="373.8519" y2="373.8519"/><polygon fill="#000000" points="289.8741,369.8519,279.8741,373.8519,289.8741,377.8519,285.8741,373.8519" style="stroke:#000000;stroke-width:1;"/><text fill="#000000" font-family="sans-serif" font-size="13" lengthAdjust="spacing" textLength="10.92" x="285.8741" y="337.3369">5.</text><text fill="#000000" font-family="sans-serif" font-size="13" lengthAdjust="spacing" textLength="3.38" x="296.7941" y="337.3369">&#160;</text><text fill="#000000" font-family="sans-serif" font-size="13" lengthAdjust="spacing" textLength="155.4802" x="300.1741" y="337.3369">montarPrompt(pergunta,</text><text fill="#000000" font-family="sans-serif" font-size="13" lengthAdjust="spacing" textLength="49.66" x="345.9341" y="355.0429">trechos)</text><polygon fill="#000000" points="551.1301,401.5579,561.1301,405.5579,551.1301,409.5579,555.1301,405.5579" style="stroke:#000000;stroke-width:1;"/><line style="stroke:#000000;stroke-width:2;" x1="278.8741" x2="557.1301" y1="405.5579" y2="405.5579"/><text fill="#000000" font-family="sans-serif" font-size="13" lengthAdjust="spacing" textLength="10.92" x="355.768" y="399.7489">6.</text><text fill="#000000" font-family="sans-serif" font-size="13" lengthAdjust="spacing" textLength="3.38" x="366.688" y="399.7489">&#160;</text><text fill="#000000" font-family="sans-serif" font-size="13" lengthAdjust="spacing" textLength="116.1681" x="370.068" y="399.7489">completar(prompt)</text><polygon fill="#000000" points="289.8741,433.2639,279.8741,437.2639,289.8741,441.2639,285.8741,437.2639" style="stroke:#000000;stroke-width:1;"/><line style="stroke:#000000;stroke-width:2;stroke-dasharray:2.0,2.0;" x1="283.8741" x2="567.1301" y1="437.2639" y2="437.2639"/><text fill="#000000" font-family="sans-serif" font-size="13" lengthAdjust="spacing" textLength="10.92" x="367.4785" y="431.4549">7.</text><text fill="#000000" font-family="sans-serif" font-size="13" lengthAdjust="spacing" textLength="3.38" x="378.3986" y="431.4549">&#160;</text><text fill="#000000" font-family="sans-serif" font-size="13" lengthAdjust="spacing" textLength="97.7471" x="381.7786" y="431.4549">respostaGerada</text><polygon fill="#000000" points="632.3099,464.9699,642.3099,468.9699,632.3099,472.9699,636.3099,468.9699" style="stroke:#000000;stroke-width:1;"/><line style="stroke:#000000;stroke-width:2;" x1="278.8741" x2="638.3099" y1="468.9699" y2="468.9699"/><text fill="#000000" font-family="sans-serif" font-size="13" lengthAdjust="spacing" textLength="10.92" x="394.7784" y="463.1609">8.</text><text fill="#000000" font-family="sans-serif" font-size="13" lengthAdjust="spacing" textLength="3.38" x="405.6984" y="463.1609">&#160;</text><text fill="#000000" font-family="sans-serif" font-size="13" lengthAdjust="spacing" textLength="119.3271" x="409.0784" y="463.1609">registrarInteracao()</text><polygon fill="#000000" points="65.4969,526.6759,55.4969,530.6759,65.4969,534.6759,61.4969,530.6759" style="stroke:#000000;stroke-width:1;"/><line style="stroke:#000000;stroke-width:2;stroke-dasharray:2.0,2.0;" x1="59.4969" x2="272.8741" y1="530.6759" y2="530.6759"/><text fill="#000000" font-family="sans-serif" font-size="13" lengthAdjust="spacing" textLength="10.92" x="130.535" y="524.8669">9.</text><text fill="#000000" font-family="sans-serif" font-size="13" lengthAdjust="spacing" textLength="3.38" x="141.455" y="524.8669">&#160;</text><text fill="#000000" font-family="sans-serif" font-size="13" lengthAdjust="spacing" textLength="53.001" x="144.835" y="524.8669">resposta</text><!--SRC=[XLFRJjj047tVhnY5bo0LYmGm5o6aE1TK2QG8shwKFapMWx6mTztTTKDRzMlwq0_e9_1ZdNMSP0r2zKlYsNFEd3cpThah26v6bqBOnrnLQB241Sh7pEXQfMDTQ0Cxi-O94BVqjIObAT5FoN_1ATrZNRYPLgw5x3TF0B4FcEfbhZAuny9IS5BYqpLPYndTvZy8XXtQ78tBPLwXSdDCKyyV78QohSrMOLJacG99of49K8PifPLTen8gz79aZ5w2CtNefIc-DK9p-E4Xbu-ATM0O1bfjVPwVbxAwk82V0k1LTAVZuN6oxq-qIScqrUDaC1iDkHeas8RywwqcL2we2UIjLkEJQJm-VTagZfCa7dLRjPE6hL9qk41BA-bGO1eV3Hgm2En0xteylrENw6Y9ttk05hW0RHH2BFGJzFWEmaJBkkJrQDjZgV5qDXjmWuxIT3rO8yDlq1cMuHjplMHofpwHqoR7ee4d4tvzgNXrTTqSyY_id4pYQNpmIkM62fIvLXiTBWXIAR1r8VmmUnUDcJCOH50PBVrTCdCoMQqSzglspwv0wV9l78H72-4f6-OmWemCciPoG5cZ6lUCEuZuoigwyjXjOlrldhPxf_fAcv9DLiz_xLvcCAtn-S_pRmqVPrUZmC0gZ9NetiR4OSItdkI3jf-_Y9HUeBk6Zo8e-Pxmd4QNbTjOVhUMs7htuPv1785aP47CwLSDAJ346E5nMpF7qUhZj0ulUTeKGqSUles65yA44q_8SkiuclV-CqU9kjyPsc-kCvSlh7HOoA_o34wtVKEiNza_]--></g></svg>