<svg fill="#FFFFFF" xmlns="http://www.w3.org/2000/svg" xmlns:xlink="http://www.w3.org/1999/xlink" contentStyleType="text/css" height="505px" preserveAspectRatio="none" style="width:545px;height:505px;background:#FFFFFF;" version="1.1" viewBox="0 0 545 505" width="545px" zoomAndPan="magnify"><title>Roteamento</title><defs/><g><rect x="0" y="0" width="545" height="505" fill="#FFFFFF" stroke="none"/><text fill="#000000" font-family="sans-serif" font-size="14" font-weight="bold" lengthAdjust="spacing" textLength="86.6737" x="226.3101" y="29.9659">Roteamento</text><rect fill="#ECEFF1" height="446.2138" style="stroke:#181818;stroke-width:0.5;" width="361.4516" x="177.8422" y="46.0679"/><text fill="#000000" font-family="sans-serif" font-size="13" font-weight="bold" lengthAdjust="spacing" textLength="80.4831" x="318.3265" y="59.9649">Roteamento</text><rect fill="#FFFFFF" height="201.5301" style="stroke:#181818;stroke-width:1;" width="10" x="239.702" y="185.6158"/><rect fill="#FFFFFF" height="31.706" style="stroke:#181818;stroke-width:1;" width="10" x="418.9642" y="262.0278"/><rect fill="#FFFFFF" height="30" style="stroke:#181818;stroke-width:1;" width="10" x="493.7989" y="325.4398"/><line style="stroke:#181818;stroke-width:0.5;stroke-dasharray:5.0,5.0;" x1="54" x2="54" y1="151.9098" y2="405.1459"/><line style="stroke:#181818;stroke-width:0.5;stroke-dasharray:5.0,5.0;" x1="243.8422" x2="243.8422" y1="151.9098" y2="405.1459"/><line style="stroke:#181818;stroke-width:0.5;stroke-dasharray:5.0,5.0;" x1="423.6243" x2="423.6243" y1="151.9098" y2="405.1459"/><line style="stroke:#181818;stroke-width:0.5;stroke-dasharray:5.0,5.0;" x1="498.3041" x2="498.3041" y1="151.9098" y2="405.1459"/><rect fill="#9C27B0" height="71.2038" rx="2.5" ry="2.5" style="stroke:#7B1FA2;stroke-width:0.5;" width="70.9938" x="19" y="79.706"/><text fill="#FFFFFF" font-family="sans-serif" font-size="14" font-style="italic" lengthAdjust="spacing" textLength="40.0539" x="34.47" y="101.672">&#171;mcp&#187;</text><text fill="#FFFFFF" font-family="sans-serif" font-size="14" lengthAdjust="spacing" textLength="30.0159" x="39.4889" y="120.7399">MCP</text><text fill="#FFFFFF" font-family="sans-serif" font-size="14" lengthAdjust="spacing" textLength="56.9938" x="26" y="139.8078">Gateway</text><rect fill="#9C27B0" height="71.2038" rx="2.5" ry="2.5" style="stroke:#7B1FA2;stroke-width:0.5;" width="70.9938" x="19" y="404.1459"/><text fill="#FFFFFF" font-family="sans-serif" font-size="14" font-style="italic" lengthAdjust="spacing" textLength="40.0539" x="34.47" y="426.1118">&#171;mcp&#187;</text><text fill="#FFFFFF" font-family="sans-serif" font-size="14" lengthAdjust="spacing" textLength="30.0159" x="39.4889" y="445.1797">MCP</text><text fill="#FFFFFF" font-family="sans-serif" font-size="14" lengthAdjust="spacing" textLength="56.9938" x="26" y="464.2476">Gateway</text><rect fill="#C8E6C9" height="52.1358" rx="2.5" ry="2.5" style="stroke:#66BB6A;stroke-width:0.5;" width="97.7197" x="195.8422" y="98.7739"/><text fill="#000000" font-family="sans-serif" font-size="14" font-style="italic" lengthAdjust="spacing" textLength="83.7197" x="202.8422" y="120.7399">&#171;embedding&#187;</text><text fill="#000000" font-family="sans-serif" font-size="14" lengthAdjust="spacing" textLength="75.4737" x="206.9652" y="139.8078">Embedding</text><rect fill="#C8E6C9" height="52.1358" rx="2.5" ry="2.5" style="stroke:#66BB6A;stroke-width:0.5;" width="97.7197" x="195.8422" y="404.1459"/><text fill="#000000" font-family="sans-serif" font-size="14" font-style="italic" lengthAdjust="spacing" textLength="83.7197" x="202.8422" y="426.1118">&#171;embedding&#187;</text><text fill="#000000" font-family="sans-serif" font-size="14" lengthAdjust="spacing" textLength="75.4737" x="206.9652" y="445.1797">Embedding</text><text fill="#000000" font-family="sans-serif" font-size="14" lengthAdjust="spacing" textLength="19.3199" x="411.3042" y="128.7399">BD</text><text fill="#000000" font-family="sans-serif" font-size="14" lengthAdjust="spacing" textLength="50.6798" x="395.6243" y="147.8078">Vetorial</text><path d="M405.9642,77.7739 C405.9642,67.7739 423.9642,67.7739 423.9642,67.7739 C423.9642,67.7739 441.9642,67.7739 441.9642,77.7739 L441.9642,103.7739 C441.9642,113.7739 423.9642,113.7739 423.9642,113.7739 C423.9642,113.7739 405.9642,113.7739 405.9642,103.7739 L405.9642,77.7739 " fill="#E2E2F0" style="stroke:#E65100;stroke-width:1.5;"/><path d="M405.9642,77.7739 C405.9642,87.7739 423.9642,87.7739 423.9642,87.7739 C423.9642,87.7739 441.9642,87.7739 441.9642,77.7739 " fill="none" style="stroke:#E65100;stroke-width:1.5;"/><text fill="#000000" font-family="sans-serif" font-size="14" lengthAdjust="spacing" textLength="19.3199" x="411.3042" y="419.1118">BD</text><text fill="#000000" font-family="sans-serif" font-size="14" lengthAdjust="spacing" textLength="50.6798" x="395.6243" y="438.1797">Vetorial</text><path d="M405.9642,452.2817 C405.9642,442.2817 423.9642,442.2817 423.9642,442.2817 C423.9642,442.2817 441.9642,442.2817 441.9642,452.2817 L441.9642,478.2817 C441.9642,488.2817 423.9642,488.2817 423.9642,488.2817 C423.9642,488.2817 405.9642,488.2817 405.9642,478.2817 L405.9642,452.2817 " fill="#E2E2F0" style="stroke:#E65100;stroke-width:1.5;"/><path d="M405.9642,452.2817 C405.9642,462.2817 423.9642,462.2817 423.9642,462.2817 C423.9642,462.2817 441.9642,462.2817 441.9642,452.2817 " fill="none" style="stroke:#E65100;stroke-width:1.5;"/><text fill="#000000" font-family="sans-serif" font-size="14" lengthAdjust="spacing" textLength="19.3199" x="486.139" y="128.7399">BD</text><text fill="#000000" font-family="sans-serif" font-size="14" lengthAdjust="spacing" textLength="66.9897" x="462.3041" y="147.8078">Relacional</text><path d="M480.7989,77.7739 C480.7989,67.7739 498.7989,67.7739 498.7989,67.7739 C498.7989,67.7739 516.7989,67.7739 516.7989,77.7739 L516.7989,103.7739 C516.7989,113.7739 498.7989,113.7739 498.7989,113.7739 C498.7989,113.7739 480.7989,113.7739 480.7989,103.7739 L480.7989,77.7739 " fill="#E2E2F0" style="stroke:#E65100;stroke-width:1.5;"/><path d="M480.7989,77.7739 C480.7989,87.7739 498.7989,87.7739 498.7989,87.7739 C498.7989,87.7739 516.7989,87.7739 516.7989,77.7739 " fill="none" style="stroke:#E65100;stroke-width:1.5;"/><text fill="#000000" font-family="sans-serif" font-size="14" lengthAdjust="spacing" textLength="19.3199" x="486.139" y="419.1118">BD</text><text fill="#000000" font-family="sans-serif" font-size="14" lengthAdjust="spacing" textLength="66.9897" x="462.3041" y="438.1797">Relacional</text><path d="M480.7989,452.2817 C480.7989,442.2817 498.7989,442.2817 498.7989,442.2817 C498.7989,442.2817 516.7989,442.2817 516.7989,452.2817 L516.7989,478.2817 C516.7989,488.2817 498.7989,488.2817 498.7989,488.2817 C498.7989,488.2817 480.7989,488.2817 480.7989,478.2817 L480.7989,452.2817 " fill="#E2E2F0" style="stroke:#E65100;stroke-width:1.5;"/><path d="M480.7989,452.2817 C480.7989,462.2817 498.7989,462.2817 498.7989,462.2817 C498.7989,462.2817 516.7989,462.2817 516.7989,452.2817 " fill="none" style="stroke:#E65100;stroke-width:1.5;"/><rect fill="#FFFFFF" height="201.5301" style="stroke:#181818;stroke-width:1;" width="10" x="239.702" y="185.6158"/><rect fill="#FFFFFF" height="31.706" style="stroke:#181818;stroke-width:1;" width="10" x="418.9642" y="262.0278"/><rect fill="#FFFFFF" height="30" style="stroke:#181818;stroke-width:1;" width="10" x="493.7989" y="325.4398"/><polygon fill="#000000" points="227.702,181.6158,237.702,185.6158,227.702,189.6158,231.702,185.6158" style="stroke:#000000;stroke-width:1;"/><line style="stroke:#000000;stroke-width:2;" x1="54.4969" x2="233.702" y1="185.6158" y2="185.6158"/><text fill="#000000" font-family="sans-serif" font-size="13" lengthAdjust="spacing" textLength="166.2052" x="63.9969" y="179.8068">1. classificarRota(pergunta)</text><line style="stroke:#000000;stroke-width:2;" x1="249.702" x2="291.702" y1="217.3218" y2="217.3218"/><line style="stroke:#000000;stroke-width:2;" x1="291.702" x2="291.702" y1="217.3218" y2="230.3218"/><line style="stroke:#000000;stroke-width:2;" x1="250.702" x2="291.702" y1="230.3218" y2="230.3218"/><polygon fill="#000000" points="260.702,226.3218,250.702,230.3218,260.702,234.3218,256.702,230.3218" style="stroke:#000000;stroke-width:1;"/><text fill="#000000" font-family="sans-serif" font-size="13" lengthAdjust="spacing" textLength="145.2621" x="256.702" y="211.5128">2. gerarVetor(pergunta)</text><polygon fill="#000000" points="406.9642,258.0278,416.9642,262.0278,406.9642,266.0278,410.9642,262.0278" style="stroke:#000000;stroke-width:1;"/><line style="stroke:#000000;stroke-width:2;" x1="249.702" x2="412.9642" y1="262.0278" y2="262.0278"/><text fill="#000000" font-family="sans-serif" font-size="13" lengthAdjust="spacing" textLength="145.8991" x="261.3835" y="256.2188">3. buscarVizinhos(vetor)</text><polygon fill="#000000" points="260.702,289.7338,250.702,293.7338,260.702,297.7338,256.702,293.7338" style="stroke:#000000;stroke-width:1;"/><line style="stroke:#000000;stroke-width:2;stroke-dasharray:2.0,2.0;" x1="254.702" x2="422.9642" y1="293.7338" y2="293.7338"/><text fill="#000000" font-family="sans-serif" font-size="13" lengthAdjust="spacing" textLength="143.0391" x="265.3135" y="287.9248">4. retornarMaiorScore()</text><polygon fill="#000000" points="481.7989,321.4398,491.7989,325.4398,481.7989,329.4398,485.7989,325.4398" style="stroke:#000000;stroke-width:1;"/><line style="stroke:#000000;stroke-width:2;" x1="249.702" x2="487.7989" y1="325.4398" y2="325.4398"/><text fill="#000000" font-family="sans-serif" font-size="13" lengthAdjust="spacing" textLength="128.8171" x="307.3419" y="319.6308">5. registrarConsulta()</text><polygon fill="#000000" points="65.4969,383.1459,55.4969,387.1459,65.4969,391.1459,61.4969,387.1459" style="stroke:#000000;stroke-width:1;"/><line style="stroke:#000000;stroke-width:2;stroke-dasharray:2.0,2.0;" x1="59.4969" x2="243.702" y1="387.1459" y2="387.1459"/><text fill="#000000" font-family="sans-serif" font-size="13" lengthAdjust="spacing" textLength="130.1951" x="84.5019" y="381.3369">6. decisao: FIM | RAG</text><!--SRC=[XLDBR-8m4BxxLupO2pqK5RPDjwX28Ycfze24wAgdNWPd21R1pjfEwJxwttSI0fXMQ7Fp-7lDfzWhNn3CZIVSaFP62BTMkaIB6rYWNEVML3fBJ64iV4cRBq0yqS-AjAJOlCN_1MUqnAhmgT6-XLmrNm1nAypCLkaSbbWu2cvcQBsIgaJjPvXbDQH_7JBR95Do3dCQ5ohN87aZiW7AaYkDTdjKJ8NPZgqrM_2s2ksQuRcKpUMFbP9hpJem23ihZpdlxpUo78tWZm3urCvTChYDh-eROpEoxVGsxgVZ0K-3ajeUty-Pq6P1JI7dh99laoYv-sWLHN4SZK-jsar3gmmzBj3HJZeKc4Gt_GOiWZZGcIQp5_s8dhRugmFeW0VGLY74mhn1v_YtTLWccQHfdyLFL2RxfHe9Fi79eWm_1El43o_wcRon2ei67Z_myHDaJWLAPVG1n0D1EWFE94ITydBKE0sXtmDPe7DggIHQZelTacnUQOyN0gLNhxnVZHMY9XnuWnxaPD4sQGBA7jK4OzpN7YmgnzBFwhVIA-EwhpKZqDwjiCDV7lIlU_m7Cr2ZdQ8ozaaQIzqBaT47uj6GbsJYJKtCbVCSBk47mCyGkoTsTHadClLW9yCwTJj3Y7hyXgLoQ8QGVf_2NvYF7qDMtSW_]--></g></svg>